# xmcd CD database file
#
# Track frame offsets:
#	150
#	2550
#	13677
#	34601
#	57766
#	65463
#	80372
#	93296
#	122239
#	134108
#	154012
#	176533
#	189848
#	216030
#
# Disc length: 3216 seconds
#
# Revision: 0
# Processed by: cddbd v1.5.2PL0 Copyright (c) Steve Scherf et al.
# Submitted via: CDex 1.70beta2
#
DISCID=af0c8e0e
DTITLE=Auton - Any where out of the world
DYEAR=2008
DGENRE=Jazz
TTITLE0=Kräfta
TTITLE1=Aerikanne
TTITLE2=El Dorado
TTITLE3=Sagittarius
TTITLE4=Slagskepp
TTITLE5=Orgelkorall
TTITLE6=Lament I
TTITLE7=Krater
TTITLE8=Autom
TTITLE9=Sans Soleil
TTITLE10=Prism
TTITLE11=DC-3
TTITLE12=36,201 ft.
TTITLE13=Lament II
EXTD=YEAR: 2008
EXTT0=
EXTT1=
EXTT2=
EXTT3=
EXTT4=
EXTT5=
EXTT6=
EXTT7=
EXTT8=
EXTT9=
EXTT10=
EXTT11=
EXTT12=
EXTT13=
PLAYORDER=
